<svg width="30" height="32" viewBox="0 0 30 32" fill="none" xmlns="http://www.w3.org/2000/svg">
<path d="M5.09332e-07 6.88977C5.09332e-07 6.88977 16 16.8898 13 18.8898C10 20.8898 27 30.8898 27 30.8898C27 30.8898 12.1599 32.5247 6 26.8898C-0.0167036 21.3858 5.09332e-07 6.88977 5.09332e-07 6.88977Z" fill="#8C30F5"/>
<path d="M30 6.88977C30 6.88977 14 16.8898 17 18.8898C20 20.8898 3 30.8898 3 30.8898C3 30.8898 17.8401 32.5247 24 26.8898C30.0167 21.3858 30 6.88977 30 6.88977Z" fill="#2EC5CE"/>
<circle cx="15" cy="2.88977" r="2" fill="#FE9A22"/>
</svg>
