<svg width="282" height="207" viewBox="0 0 282 207" fill="none" xmlns="http://www.w3.org/2000/svg">
  <path
    d="M143.1 145.879C134.781 153.493 124.429 158.526 113.304 160.366C102.178 162.207 90.7572 160.776 80.4295 156.247C70.1018 151.719 61.312 144.288 55.1284 134.857C48.9449 125.427 45.634 114.403 45.5981 103.126C45.5622 91.8495 48.8029 80.805 54.9263 71.3354C61.0496 61.8658 69.792 54.3789 80.0907 49.7847C90.3893 45.1906 101.801 43.687 112.938 45.4567C124.075 47.2265 134.458 52.1934 142.826 59.7537L128.06 76.0958C122.859 71.3963 116.404 68.3089 109.481 67.2088C102.559 66.1088 95.4652 67.0434 89.0636 69.8991C82.6619 72.7549 77.2277 77.4087 73.4214 83.295C69.6151 89.1813 67.6007 96.0466 67.623 103.056C67.6453 110.066 69.7034 116.918 73.5471 122.78C77.3907 128.642 82.8545 133.261 89.2742 136.076C95.6939 138.891 102.793 139.781 109.709 138.637C116.625 137.492 123.059 134.364 128.23 129.631L143.1 145.879Z"
    fill="url(#paint0_linear)" />
  <path
    d="M172.37 174.413C158.425 187.766 140.884 196.756 121.901 200.281C102.919 203.805 83.3198 201.711 65.5106 194.254C47.7014 186.798 32.4567 174.304 21.6478 158.306C10.8389 142.308 4.93619 123.502 4.6641 104.197C4.39202 84.8912 9.76243 65.9265 20.1162 49.6302C30.4699 33.3339 45.3564 20.4152 62.9484 12.4597C80.5404 4.50424 100.072 1.85821 119.147 4.84641C138.222 7.83461 156.009 16.327 170.325 29.2812L151.979 49.5568C141.611 40.1752 128.729 34.0249 114.915 31.8609C101.101 29.6968 86.9557 31.613 74.2154 37.3745C61.475 43.1359 50.6941 52.4918 43.1958 64.2937C35.6976 76.0956 31.8083 89.8301 32.0053 103.811C32.2024 117.792 36.4772 131.412 44.3051 142.998C52.133 154.583 63.1733 163.632 76.0709 169.032C88.9685 174.432 103.162 175.949 116.91 173.396C130.657 170.844 143.36 164.333 153.46 154.663L172.37 174.413Z"
    fill="url(#paint1_linear)" />
  <path
    d="M120.412 120V86.1797H110.264L102.084 106.922H101.639L93.4355 86.1797H83.2871V120H91.2324V98.6484H91.6543L99.2012 117.469H104.521L112.045 98.6484H112.467V120H120.412ZM136.959 86.1797H128.381V108.328C128.381 115.922 134.146 120.914 142.936 120.914C151.725 120.914 157.49 115.922 157.49 108.328V86.1797H148.912V107.414C148.912 111.352 146.779 113.672 142.936 113.672C139.115 113.672 136.959 111.352 136.959 107.414V86.1797ZM173.615 120V100.781H174.061L188.193 120H195.014V86.1797H186.857V105.211H186.412L172.326 86.1797H165.459V120H173.615ZM211.607 120V86.1797H203.006V120H211.607ZM236.076 120V93.0938H245.85V86.1797H217.748V93.0938H227.498V120H236.076ZM269.967 120V108.375L281.615 86.1797H272.451L265.912 99.9844H265.467L258.881 86.1797H249.717L261.389 108.375V120H269.967Z"
    fill="white" />
  <defs>
    <linearGradient id="paint0_linear" x1="140.855" y1="58.0513" x2="66.7521" y2="147.831"
      gradientUnits="userSpaceOnUse">
      <stop stop-color="#5350FF" />
      <stop offset="1" stop-color="#5350FF" />
    </linearGradient>
    <linearGradient id="paint1_linear" x1="202.835" y1="98.0329" x2="4.76889" y2="107.566"
      gradientUnits="userSpaceOnUse">
      <stop stop-color="#2622FF" />
      <stop offset="1" stop-color="#5350FF" />
    </linearGradient>
  </defs>
</svg>