<svg width="282" height="207" viewBox="0 0 282 207" fill="none" xmlns="http://www.w3.org/2000/svg">
  <path
    d="M143.098 145.879C134.779 153.493 124.428 158.526 113.302 160.366C102.176 162.207 90.7553 160.776 80.4276 156.247C70.0999 151.719 61.31 144.288 55.1265 134.857C48.943 125.427 45.632 114.403 45.5961 103.126C45.5602 91.8495 48.8009 80.805 54.9243 71.3354C61.0477 61.8658 69.79 54.3789 80.0887 49.7847C90.3874 45.1906 101.799 43.687 112.936 45.4567C124.073 47.2265 134.457 52.1934 142.824 59.7537L128.058 76.0958C122.857 71.3963 116.402 68.3089 109.48 67.2088C102.557 66.1088 95.4633 67.0434 89.0616 69.8991C82.66 72.7549 77.2257 77.4087 73.4194 83.295C69.6131 89.1813 67.5987 96.0466 67.621 103.056C67.6433 110.066 69.7014 116.918 73.5451 122.78C77.3888 128.642 82.8526 133.261 89.2723 136.076C95.692 138.891 102.791 139.781 109.707 138.637C116.623 137.492 123.057 134.364 128.228 129.631L143.098 145.879Z"
    fill="url(#paint0_linear)" />
  <path
    d="M172.368 174.413C158.423 187.766 140.882 196.756 121.899 200.281C102.917 203.805 83.3179 201.711 65.5086 194.254C47.6994 186.798 32.4547 174.304 21.6459 158.306C10.837 142.308 4.93424 123.502 4.66215 104.197C4.39006 84.8912 9.76048 65.9265 20.1142 49.6302C30.4679 33.3339 45.3544 20.4152 62.9464 12.4597C80.5384 4.50424 100.07 1.85821 119.145 4.84641C138.22 7.83461 156.007 16.327 170.323 29.2812L151.977 49.5568C141.609 40.1752 128.727 34.0249 114.913 31.8609C101.099 29.6968 86.9537 31.613 74.2134 37.3745C61.4731 43.1359 50.6921 52.4918 43.1939 64.2937C35.6956 76.0956 31.8063 89.8301 32.0034 103.811C32.2004 117.792 36.4752 131.412 44.3031 142.998C52.131 154.583 63.1714 163.632 76.069 169.032C88.9666 174.432 103.16 175.949 116.908 173.396C130.655 170.844 143.358 164.333 153.458 154.663L172.368 174.413Z"
    fill="url(#paint1_linear)" />
  <path
    d="M120.41 120V86.1797H110.262L102.082 106.922H101.637L93.4336 86.1797H83.2852V120H91.2305V98.6484H91.6523L99.1992 117.469H104.52L112.043 98.6484H112.465V120H120.41ZM136.957 86.1797H128.379V108.328C128.379 115.922 134.145 120.914 142.934 120.914C151.723 120.914 157.488 115.922 157.488 108.328V86.1797H148.91V107.414C148.91 111.352 146.777 113.672 142.934 113.672C139.113 113.672 136.957 111.352 136.957 107.414V86.1797ZM173.613 120V100.781H174.059L188.191 120H195.012V86.1797H186.855V105.211H186.41L172.324 86.1797H165.457V120H173.613ZM211.605 120V86.1797H203.004V120H211.605ZM236.074 120V93.0938H245.848V86.1797H217.746V93.0938H227.496V120H236.074ZM269.965 120V108.375L281.613 86.1797H272.449L265.91 99.9844H265.465L258.879 86.1797H249.715L261.387 108.375V120H269.965Z"
    fill="#1C1A6D" />
  <defs>
    <linearGradient id="paint0_linear" x1="140.853" y1="58.0513" x2="66.7502" y2="147.831"
      gradientUnits="userSpaceOnUse">
      <stop stop-color="#5350FF" />
      <stop offset="1" stop-color="#5350FF" />
    </linearGradient>
    <linearGradient id="paint1_linear" x1="202.833" y1="98.0329" x2="4.76694" y2="107.566"
      gradientUnits="userSpaceOnUse">
      <stop stop-color="#2622FF" />
      <stop offset="1" stop-color="#5350FF" />
    </linearGradient>
  </defs>
</svg>