<svg width="169" height="199" viewBox="0 0 169 199" fill="none" xmlns="http://www.w3.org/2000/svg">
  <path
    d="M139.098 142.738C130.779 150.351 120.428 155.384 109.302 157.225C98.1761 159.065 86.7553 157.635 76.4276 153.106C66.0999 148.577 57.3101 141.146 51.1265 131.716C44.943 122.285 41.6321 111.262 41.5962 99.985C41.5603 88.7081 44.801 77.6636 50.9244 68.194C57.0477 58.7244 65.7901 51.2375 76.0888 46.6433C86.3874 42.0492 97.7989 40.5456 108.936 42.3153C120.073 44.0851 130.457 49.052 138.824 56.6123L124.058 72.9544C118.857 68.2549 112.402 65.1675 105.48 64.0674C98.5567 62.9674 91.4633 63.902 85.0617 66.7577C78.66 69.6135 73.2258 74.2673 69.4195 80.1536C65.6132 86.0399 63.5988 92.9052 63.6211 99.9149C63.6434 106.925 65.7015 113.777 69.5452 119.639C73.3888 125.501 78.8526 130.12 85.2723 132.935C91.692 135.75 98.7912 136.639 105.707 135.495C112.623 134.351 119.057 131.223 124.228 126.49L139.098 142.738Z"
    fill="url(#paint0_linear)" />
  <path
    d="M168.369 171.414C154.423 184.766 136.882 193.756 117.9 197.281C98.9167 200.806 79.3179 198.711 61.5087 191.254C43.6994 183.798 28.4548 171.304 17.6459 155.306C6.83703 139.308 0.934281 120.502 0.662193 101.197C0.390106 81.8914 5.76052 62.9267 16.1142 46.6304C26.468 30.3341 41.3545 17.4154 58.9465 9.45992C76.5385 1.50444 96.0705 -1.14159 115.145 1.84661C134.22 4.83481 152.007 13.3272 166.323 26.2814L147.977 46.557C137.609 37.1754 124.727 31.0251 110.913 28.861C97.099 26.697 82.9537 28.6132 70.2134 34.3747C57.4731 40.1361 46.6922 49.492 39.1939 61.2939C31.6957 73.0958 27.8064 86.8303 28.0034 100.811C28.2005 114.792 32.4753 128.412 40.3032 139.998C48.1311 151.584 59.1714 160.632 72.069 166.032C84.9666 171.432 99.1603 172.949 112.908 170.396C126.655 167.844 139.358 161.333 149.458 151.663L168.369 171.414Z"
    fill="url(#paint1_linear)" />
  <defs>
    <linearGradient id="paint0_linear" x1="198.833" y1="95.0329" x2="0.766934" y2="104.566"
      gradientUnits="userSpaceOnUse">
      <stop stop-color="#2622FF" />
      <stop offset="1" stop-color="#5350FF" />
    </linearGradient>
    <linearGradient id="paint1_linear" x1="198.833" y1="95.0329" x2="0.766934" y2="104.566"
      gradientUnits="userSpaceOnUse">
      <stop stop-color="#2622FF" />
      <stop offset="1" stop-color="#5350FF" />
    </linearGradient>
  </defs>
</svg>